ffmpeg started on 2026-04-09 at 15:03:12
Report written to "D:\Convert\FFMetrics\reports\psnr_report-6.txt"
Log level: 32
Command line:
ffmpeg -hide_banner -nostdin -r 24000/1001 -i "F:\\Convert\\files\\[DC] Make Heroine ga Oosugiru - 07_Telegram_HEVC(314).mkv" -r 24000/1001 -i "F:\\Convert\\files\\[DC] Make Heroine ga Oosugiru - 07_Telegram.mp4" -lavfi "[0:v]settb=AVTB,setpts=PTS-STARTPTS,format=pix_fmts=yuv420p10le,fps=24000/1001,scale=1920:1080:flags=lanczos:param0=3:out_range=limited:out_color_matrix=bt709:out_chroma_loc=left,setsar=1/1,setdar=(1920/1080)*(1/1),colorspace=format=yuv420p10:range=tv:primaries=bt709:trc=bt709:space=bt709:fast=0[main];[1:v]settb=AVTB,setpts=PTS-STARTPTS,format=pix_fmts=yuv420p,fps=24000/1001,scale=1920:1080:flags=lanczos:param0=3:out_range=limited:out_color_matrix=bt709:out_chroma_loc=left,setsar=1/1,setdar=(1920/1080)*(1/1),colorspace=format=yuv420p:range=tv:primaries=bt709:trc=bt709:space=bt709:fast=0[ref];[main][ref]psnr=eof_action=endall:stats_file='D\\:/Convert/FFMetrics/logs/psnr_logfile-6.txt'" -f null -
Input #0, matroska,webm, from 'F:\Convert\files\[DC] Make Heroine ga Oosugiru - 07_Telegram_HEVC(314).mkv':
  Metadata:
    COMPATIBLE_BRANDS: isomiso2avc1mp41
    MAJOR_BRAND     : isom
    MINOR_VERSION   : 512
    ENCODER         : Lavf61.7.100
  Duration: 00:24:06.79, start: -0.021000, bitrate: 999 kb/s
  Stream #0:0: Video: hevc (Main 10), yuv420p10le(tv, bt709, progressive), 1920x1080 [SAR 1:1 DAR 16:9], 23.98 fps, 23.98 tbr, 1k tbn (default)
      Metadata:
        HANDLER_NAME    : VideoHandler
        VENDOR_ID       : [0][0][0][0]
        ENCODER         : Lavc61.19.100 libx265
        BPS             : 801920
        DURATION        : 00:24:06.569708333
        NUMBER_OF_FRAMES: 34683
        NUMBER_OF_BYTES : 145004229
        _STATISTICS_WRITING_APP: mkvpropedit v94.0 ('Initiate') 64-bit
        _STATISTICS_WRITING_DATE_UTC: 2026-04-09 09:06:53
        _STATISTICS_TAGS: BPS DURATION NUMBER_OF_FRAMES NUMBER_OF_BYTES
  Stream #0:1: Audio: aac (LC), 48000 Hz, stereo, fltp (default)
      Metadata:
        HANDLER_NAME    : SoundHandler
        VENDOR_ID       : [0][0][0][0]
        ENCODER         : Lavc61.19.100 aac
        BPS             : 193194
        DURATION        : 00:24:06.784000000
        NUMBER_OF_FRAMES: 67819
        NUMBER_OF_BYTES : 34938755
        _STATISTICS_WRITING_APP: mkvpropedit v94.0 ('Initiate') 64-bit
        _STATISTICS_WRITING_DATE_UTC: 2026-04-09 09:06:53
        _STATISTICS_TAGS: BPS DURATION NUMBER_OF_FRAMES NUMBER_OF_BYTES
Input #1, mov,mp4,m4a,3gp,3g2,mj2, from 'F:\Convert\files\[DC] Make Heroine ga Oosugiru - 07_Telegram.mp4':
  Metadata:
    major_brand     : isom
    minor_version   : 512
    compatible_brands: isomiso2avc1mp41
    encoder         : Lavf60.16.100
  Duration: 00:24:06.74, start: 0.000000, bitrate: 3764 kb/s
  Stream #1:0[0x1](und): Video: h264 (High) (avc1 / 0x31637661), yuv420p(tv, bt709, progressive), 1920x1080 [SAR 1:1 DAR 16:9], 3616 kb/s, 23.98 fps, 23.98 tbr, 24k tbn (default)
      Metadata:
        handler_name    : VideoHandler
        vendor_id       : [0][0][0][0]
        encoder         : Lavc60.31.102 h264_qsv
  Stream #1:1[0x2](und): Audio: aac (HE-AACv2) (mp4a / 0x6134706D), 48000 Hz, stereo, fltp, 144 kb/s (default)
      Metadata:
        handler_name    : SoundHandler
        vendor_id       : [0][0][0][0]
Stream mapping:
  Stream #0:0 (hevc) -> settb:default
  Stream #1:0 (h264) -> settb:default
  psnr:default -> Stream #0:0 (wrapped_avframe)
  Stream #0:1 -> #0:1 (aac (native) -> pcm_s16le (native))
Output #0, null, to 'pipe:':
  Metadata:
    COMPATIBLE_BRANDS: isomiso2avc1mp41
    MAJOR_BRAND     : isom
    MINOR_VERSION   : 512
    encoder         : Lavf61.7.100
  Stream #0:0: Video: wrapped_avframe, yuv420p10le(tv, bt709, progressive), 1920x1080 [SAR 1:1 DAR 16:9], q=2-31, 200 kb/s, 23.98 fps, 23.98 tbn
      Metadata:
        encoder         : Lavc61.19.100 wrapped_avframe
  Stream #0:1: Audio: pcm_s16le, 48000 Hz, stereo, s16, 1536 kb/s (default)
      Metadata:
        HANDLER_NAME    : SoundHandler
        VENDOR_ID       : [0][0][0][0]
        _STATISTICS_TAGS: BPS DURATION NUMBER_OF_FRAMES NUMBER_OF_BYTES
        BPS             : 193194
        DURATION        : 00:24:06.784000000
        NUMBER_OF_FRAMES: 67819
        NUMBER_OF_BYTES : 34938755
        _STATISTICS_WRITING_APP: mkvpropedit v94.0 ('Initiate') 64-bit
        _STATISTICS_WRITING_DATE_UTC: 2026-04-09 09:06:53
        encoder         : Lavc61.19.100 pcm_s16le
frame=  127 fps=0.0 q=-0.0 size=N/A time=00:00:05.29 bitrate=N/A speed=10.1x    frame=  319 fps=303 q=-0.0 size=N/A time=00:00:13.30 bitrate=N/A speed=12.6x    frame=  515 fps=329 q=-0.0 size=N/A time=00:00:21.47 bitrate=N/A speed=13.7x    frame=  700 fps=337 q=-0.0 size=N/A time=00:00:29.19 bitrate=N/A speed=14.1x    frame=  887 fps=341 q=-0.0 size=N/A time=00:00:36.99 bitrate=N/A speed=14.2x    frame= 1014 fps=326 q=-0.0 size=N/A time=00:00:42.29 bitrate=N/A speed=13.6x    frame= 1167 fps=322 q=-0.0 size=N/A time=00:00:48.67 bitrate=N/A speed=13.4x    frame= 1329 fps=320 q=-0.0 size=N/A time=00:00:55.43 bitrate=N/A speed=13.4x    frame= 1484 fps=318 q=-0.0 size=N/A time=00:01:01.89 bitrate=N/A speed=13.3x    frame= 1622 fps=314 q=-0.0 size=N/A time=00:01:07.65 bitrate=N/A speed=13.1x    frame= 1778 fps=312 q=-0.0 size=N/A time=00:01:14.15 bitrate=N/A speed=  13x    frame= 1928 fps=311 q=-0.0 size=N/A time=00:01:20.41 bitrate=N/A speed=  13x    frame= 2063 fps=307 q=-0.0 size=N/A time=00:01:26.04 bitrate=N/A speed=12.8x    frame= 2183 fps=301 q=-0.0 size=N/A time=00:01:31.04 bitrate=N/A speed=12.6x    frame= 2336 fps=301 q=-0.0 size=N/A time=00:01:37.43 bitrate=N/A speed=12.6x    frame= 2460 fps=298 q=-0.0 size=N/A time=00:01:42.60 bitrate=N/A speed=12.4x    frame= 2590 fps=295 q=-0.0 size=N/A time=00:01:48.02 bitrate=N/A speed=12.3x    frame= 2760 fps=297 q=-0.0 size=N/A time=00:01:55.11 bitrate=N/A speed=12.4x    frame= 2915 fps=297 q=-0.0 size=N/A time=00:02:01.57 bitrate=N/A speed=12.4x    frame= 3107 fps=301 q=-0.0 size=N/A time=00:02:09.58 bitrate=N/A speed=12.5x    frame= 3294 fps=304 q=-0.0 size=N/A time=00:02:17.38 bitrate=N/A speed=12.7x    frame= 3484 fps=307 q=-0.0 size=N/A time=00:02:25.31 bitrate=N/A speed=12.8x    frame= 3678 fps=310 q=-0.0 size=N/A time=00:02:33.40 bitrate=N/A speed=12.9x    frame= 3864 fps=312 q=-0.0 size=N/A time=00:02:41.16 bitrate=N/A speed=  13x    frame= 4050 fps=314 q=-0.0 size=N/A time=00:02:48.91 bitrate=N/A speed=13.1x    frame= 4244 fps=316 q=-0.0 size=N/A time=00:02:57.01 bitrate=N/A speed=13.2x    frame= 4424 fps=317 q=-0.0 size=N/A time=00:03:04.51 bitrate=N/A speed=13.2x    frame= 4618 fps=320 q=-0.0 size=N/A time=00:03:12.60 bitrate=N/A speed=13.3x    frame= 4813 fps=321 q=-0.0 size=N/A time=00:03:20.74 bitrate=N/A speed=13.4x    frame= 4995 fps=323 q=-0.0 size=N/A time=00:03:28.33 bitrate=N/A speed=13.5x    frame= 5174 fps=323 q=-0.0 size=N/A time=00:03:35.79 bitrate=N/A speed=13.5x    frame= 5371 fps=325 q=-0.0 size=N/A time=00:03:44.01 bitrate=N/A speed=13.6x    frame= 5548 fps=326 q=-0.0 size=N/A time=00:03:51.39 bitrate=N/A speed=13.6x    frame= 5738 fps=327 q=-0.0 size=N/A time=00:03:59.32 bitrate=N/A speed=13.6x    frame= 5933 fps=328 q=-0.0 size=N/A time=00:04:07.45 bitrate=N/A speed=13.7x    frame= 6113 fps=329 q=-0.0 size=N/A time=00:04:14.96 bitrate=N/A speed=13.7x    frame= 6300 fps=330 q=-0.0 size=N/A time=00:04:22.76 bitrate=N/A speed=13.8x    frame= 6495 fps=331 q=-0.0 size=N/A time=00:04:30.89 bitrate=N/A speed=13.8x    frame= 6685 fps=332 q=-0.0 size=N/A time=00:04:38.82 bitrate=N/A speed=13.8x    frame= 6874 fps=333 q=-0.0 size=N/A time=00:04:46.70 bitrate=N/A speed=13.9x    frame= 7047 fps=333 q=-0.0 size=N/A time=00:04:53.91 bitrate=N/A speed=13.9x    frame= 7237 fps=334 q=-0.0 size=N/A time=00:05:01.84 bitrate=N/A speed=13.9x    frame= 7418 fps=334 q=-0.0 size=N/A time=00:05:09.39 bitrate=N/A speed=13.9x    frame= 7594 fps=334 q=-0.0 size=N/A time=00:05:16.73 bitrate=N/A speed=13.9x    frame= 7766 fps=334 q=-0.0 size=N/A time=00:05:23.90 bitrate=N/A speed=13.9x    frame= 7954 fps=335 q=-0.0 size=N/A time=00:05:31.74 bitrate=N/A speed=  14x    frame= 8138 fps=335 q=-0.0 size=N/A time=00:05:39.42 bitrate=N/A speed=  14x    frame= 8319 fps=336 q=-0.0 size=N/A time=00:05:46.97 bitrate=N/A speed=  14x    frame= 8508 fps=336 q=-0.0 size=N/A time=00:05:54.85 bitrate=N/A speed=  14x    frame= 8696 fps=337 q=-0.0 size=N/A time=00:06:02.69 bitrate=N/A speed=  14x    frame= 8881 fps=337 q=-0.0 size=N/A time=00:06:10.41 bitrate=N/A speed=14.1x    frame= 9065 fps=338 q=-0.0 size=N/A time=00:06:18.08 bitrate=N/A speed=14.1x    frame= 9256 fps=338 q=-0.0 size=N/A time=00:06:26.05 bitrate=N/A speed=14.1x    frame= 9451 fps=339 q=-0.0 size=N/A time=00:06:34.18 bitrate=N/A speed=14.1x    frame= 9635 fps=339 q=-0.0 size=N/A time=00:06:41.85 bitrate=N/A speed=14.1x    frame= 9825 fps=340 q=-0.0 size=N/A time=00:06:49.78 bitrate=N/A speed=14.2x    frame=10019 fps=340 q=-0.0 size=N/A time=00:06:57.87 bitrate=N/A speed=14.2x    frame=10203 fps=341 q=-0.0 size=N/A time=00:07:05.55 bitrate=N/A speed=14.2x    frame=10381 fps=341 q=-0.0 size=N/A time=00:07:12.97 bitrate=N/A speed=14.2x    frame=10567 fps=341 q=-0.0 size=N/A time=00:07:20.73 bitrate=N/A speed=14.2x    frame=10743 fps=341 q=-0.0 size=N/A time=00:07:28.07 bitrate=N/A speed=14.2x    frame=10918 fps=341 q=-0.0 size=N/A time=00:07:35.37 bitrate=N/A speed=14.2x    frame=11114 fps=342 q=-0.0 size=N/A time=00:07:43.54 bitrate=N/A speed=14.3x    frame=11287 fps=341 q=-0.0 size=N/A time=00:07:50.76 bitrate=N/A speed=14.2x    frame=11476 fps=342 q=-0.0 size=N/A time=00:07:58.64 bitrate=N/A speed=14.3x    frame=11665 fps=342 q=-0.0 size=N/A time=00:08:06.52 bitrate=N/A speed=14.3x    frame=11868 fps=343 q=-0.0 size=N/A time=00:08:14.99 bitrate=N/A speed=14.3x    frame=12059 fps=343 q=-0.0 size=N/A time=00:08:22.96 bitrate=N/A speed=14.3x    frame=12244 fps=344 q=-0.0 size=N/A time=00:08:30.67 bitrate=N/A speed=14.3x    frame=12434 fps=344 q=-0.0 size=N/A time=00:08:38.60 bitrate=N/A speed=14.4x    frame=12610 fps=344 q=-0.0 size=N/A time=00:08:45.94 bitrate=N/A speed=14.3x    frame=12796 fps=344 q=-0.0 size=N/A time=00:08:53.69 bitrate=N/A speed=14.4x    frame=12986 fps=345 q=-0.0 size=N/A time=00:09:01.62 bitrate=N/A speed=14.4x    frame=13175 fps=345 q=-0.0 size=N/A time=00:09:09.50 bitrate=N/A speed=14.4x    frame=13360 fps=345 q=-0.0 size=N/A time=00:09:17.22 bitrate=N/A speed=14.4x    frame=13540 fps=345 q=-0.0 size=N/A time=00:09:24.73 bitrate=N/A speed=14.4x    frame=13729 fps=345 q=-0.0 size=N/A time=00:09:32.61 bitrate=N/A speed=14.4x    frame=13918 fps=346 q=-0.0 size=N/A time=00:09:40.49 bitrate=N/A speed=14.4x    frame=14094 fps=346 q=-0.0 size=N/A time=00:09:47.83 bitrate=N/A speed=14.4x    frame=14285 fps=346 q=-0.0 size=N/A time=00:09:55.80 bitrate=N/A speed=14.4x    frame=14470 fps=346 q=-0.0 size=N/A time=00:10:03.51 bitrate=N/A speed=14.4x    frame=14661 fps=346 q=-0.0 size=N/A time=00:10:11.48 bitrate=N/A speed=14.4x    frame=14849 fps=347 q=-0.0 size=N/A time=00:10:19.32 bitrate=N/A speed=14.5x    frame=15038 fps=347 q=-0.0 size=N/A time=00:10:27.20 bitrate=N/A speed=14.5x    frame=15192 fps=346 q=-0.0 size=N/A time=00:10:33.63 bitrate=N/A speed=14.4x    frame=15375 fps=346 q=-0.0 size=N/A time=00:10:41.26 bitrate=N/A speed=14.4x    frame=15559 fps=346 q=-0.0 size=N/A time=00:10:48.93 bitrate=N/A speed=14.4x    frame=15755 fps=347 q=-0.0 size=N/A time=00:10:57.11 bitrate=N/A speed=14.5x    frame=15946 fps=347 q=-0.0 size=N/A time=00:11:05.08 bitrate=N/A speed=14.5x    frame=16135 fps=347 q=-0.0 size=N/A time=00:11:12.96 bitrate=N/A speed=14.5x    frame=16332 fps=348 q=-0.0 size=N/A time=00:11:21.18 bitrate=N/A speed=14.5x    frame=16515 fps=348 q=-0.0 size=N/A time=00:11:28.81 bitrate=N/A speed=14.5x    frame=16703 fps=348 q=-0.0 size=N/A time=00:11:36.65 bitrate=N/A speed=14.5x    frame=16895 fps=348 q=-0.0 size=N/A time=00:11:44.66 bitrate=N/A speed=14.5x    frame=17084 fps=348 q=-0.0 size=N/A time=00:11:52.54 bitrate=N/A speed=14.5x    frame=17278 fps=349 q=-0.0 size=N/A time=00:12:00.63 bitrate=N/A speed=14.5x    frame=17465 fps=349 q=-0.0 size=N/A time=00:12:08.43 bitrate=N/A speed=14.6x    frame=17642 fps=349 q=-0.0 size=N/A time=00:12:15.81 bitrate=N/A speed=14.5x    frame=17832 fps=349 q=-0.0 size=N/A time=00:12:23.74 bitrate=N/A speed=14.6x    frame=18019 fps=349 q=-0.0 size=N/A time=00:12:31.54 bitrate=N/A speed=14.6x    frame=18202 fps=349 q=-0.0 size=N/A time=00:12:39.17 bitrate=N/A speed=14.6x    frame=18380 fps=349 q=-0.0 size=N/A time=00:12:46.59 bitrate=N/A speed=14.6x    frame=18575 fps=349 q=-0.0 size=N/A time=00:12:54.73 bitrate=N/A speed=14.6x    frame=18766 fps=350 q=-0.0 size=N/A time=00:13:02.69 bitrate=N/A speed=14.6x    frame=18960 fps=350 q=-0.0 size=N/A time=00:13:10.79 bitrate=N/A speed=14.6x    frame=19158 fps=350 q=-0.0 size=N/A time=00:13:19.04 bitrate=N/A speed=14.6x    frame=19352 fps=350 q=-0.0 size=N/A time=00:13:27.13 bitrate=N/A speed=14.6x    frame=19543 fps=351 q=-0.0 size=N/A time=00:13:35.10 bitrate=N/A speed=14.6x    frame=19738 fps=351 q=-0.0 size=N/A time=00:13:43.23 bitrate=N/A speed=14.6x    frame=19930 fps=351 q=-0.0 size=N/A time=00:13:51.24 bitrate=N/A speed=14.6x    frame=20127 fps=351 q=-0.0 size=N/A time=00:13:59.46 bitrate=N/A speed=14.6x    frame=20319 fps=351 q=-0.0 size=N/A time=00:14:07.47 bitrate=N/A speed=14.7x    frame=20498 fps=351 q=-0.0 size=N/A time=00:14:14.93 bitrate=N/A speed=14.7x    frame=20671 fps=351 q=-0.0 size=N/A time=00:14:22.15 bitrate=N/A speed=14.6x    frame=20871 fps=351 q=-0.0 size=N/A time=00:14:30.49 bitrate=N/A speed=14.7x    frame=21061 fps=352 q=-0.0 size=N/A time=00:14:38.41 bitrate=N/A speed=14.7x    frame=21256 fps=352 q=-0.0 size=N/A time=00:14:46.55 bitrate=N/A speed=14.7x    frame=21438 fps=352 q=-0.0 size=N/A time=00:14:54.14 bitrate=N/A speed=14.7x    frame=21637 fps=352 q=-0.0 size=N/A time=00:15:02.44 bitrate=N/A speed=14.7x    frame=21804 fps=352 q=-0.0 size=N/A time=00:15:09.40 bitrate=N/A speed=14.7x    frame=21996 fps=352 q=-0.0 size=N/A time=00:15:17.41 bitrate=N/A speed=14.7x    frame=22181 fps=352 q=-0.0 size=N/A time=00:15:25.13 bitrate=N/A speed=14.7x    frame=22384 fps=352 q=-0.0 size=N/A time=00:15:33.59 bitrate=N/A speed=14.7x    frame=22574 fps=353 q=-0.0 size=N/A time=00:15:41.52 bitrate=N/A speed=14.7x    frame=22758 fps=353 q=-0.0 size=N/A time=00:15:49.19 bitrate=N/A speed=14.7x    frame=22937 fps=353 q=-0.0 size=N/A time=00:15:56.66 bitrate=N/A speed=14.7x    frame=23137 fps=353 q=-0.0 size=N/A time=00:16:05.00 bitrate=N/A speed=14.7x    frame=23321 fps=353 q=-0.0 size=N/A time=00:16:12.68 bitrate=N/A speed=14.7x    frame=23513 fps=353 q=-0.0 size=N/A time=00:16:20.68 bitrate=N/A speed=14.7x    frame=23705 fps=353 q=-0.0 size=N/A time=00:16:28.69 bitrate=N/A speed=14.7x    frame=23898 fps=353 q=-0.0 size=N/A time=00:16:36.74 bitrate=N/A speed=14.7x    frame=24092 fps=353 q=-0.0 size=N/A time=00:16:44.83 bitrate=N/A speed=14.7x    frame=24265 fps=353 q=-0.0 size=N/A time=00:16:52.05 bitrate=N/A speed=14.7x    frame=24458 fps=353 q=-0.0 size=N/A time=00:17:00.10 bitrate=N/A speed=14.7x    frame=24652 fps=354 q=-0.0 size=N/A time=00:17:08.19 bitrate=N/A speed=14.8x    frame=24843 fps=354 q=-0.0 size=N/A time=00:17:16.16 bitrate=N/A speed=14.8x    frame=25031 fps=354 q=-0.0 size=N/A time=00:17:24.00 bitrate=N/A speed=14.8x    frame=25218 fps=354 q=-0.0 size=N/A time=00:17:31.80 bitrate=N/A speed=14.8x    frame=25410 fps=354 q=-0.0 size=N/A time=00:17:39.80 bitrate=N/A speed=14.8x    frame=25606 fps=354 q=-0.0 size=N/A time=00:17:47.98 bitrate=N/A speed=14.8x    frame=25784 fps=354 q=-0.0 size=N/A time=00:17:55.40 bitrate=N/A speed=14.8x    frame=25980 fps=354 q=-0.0 size=N/A time=00:18:03.58 bitrate=N/A speed=14.8x    frame=26159 fps=354 q=-0.0 size=N/A time=00:18:11.04 bitrate=N/A speed=14.8x    frame=26360 fps=355 q=-0.0 size=N/A time=00:18:19.43 bitrate=N/A speed=14.8x    frame=26542 fps=355 q=-0.0 size=N/A time=00:18:27.02 bitrate=N/A speed=14.8x    frame=26732 fps=355 q=-0.0 size=N/A time=00:18:34.94 bitrate=N/A speed=14.8x    frame=26919 fps=355 q=-0.0 size=N/A time=00:18:42.74 bitrate=N/A speed=14.8x    frame=27091 fps=355 q=-0.0 size=N/A time=00:18:49.92 bitrate=N/A speed=14.8x    frame=27265 fps=354 q=-0.0 size=N/A time=00:18:57.17 bitrate=N/A speed=14.8x    frame=27442 fps=354 q=-0.0 size=N/A time=00:19:04.56 bitrate=N/A speed=14.8x    frame=27625 fps=354 q=-0.0 size=N/A time=00:19:12.19 bitrate=N/A speed=14.8x    frame=27806 fps=354 q=-0.0 size=N/A time=00:19:19.74 bitrate=N/A speed=14.8x    frame=27983 fps=354 q=-0.0 size=N/A time=00:19:27.12 bitrate=N/A speed=14.8x    frame=28166 fps=354 q=-0.0 size=N/A time=00:19:34.75 bitrate=N/A speed=14.8x    frame=28360 fps=354 q=-0.0 size=N/A time=00:19:42.84 bitrate=N/A speed=14.8x    frame=28538 fps=354 q=-0.0 size=N/A time=00:19:50.27 bitrate=N/A speed=14.8x    frame=28718 fps=354 q=-0.0 size=N/A time=00:19:57.77 bitrate=N/A speed=14.8x    frame=28879 fps=354 q=-0.0 size=N/A time=00:20:04.49 bitrate=N/A speed=14.8x    frame=29041 fps=354 q=-0.0 size=N/A time=00:20:11.25 bitrate=N/A speed=14.8x    frame=29214 fps=354 q=-0.0 size=N/A time=00:20:18.46 bitrate=N/A speed=14.7x    frame=29382 fps=353 q=-0.0 size=N/A time=00:20:25.47 bitrate=N/A speed=14.7x    frame=29541 fps=353 q=-0.0 size=N/A time=00:20:32.10 bitrate=N/A speed=14.7x    frame=29712 fps=353 q=-0.0 size=N/A time=00:20:39.23 bitrate=N/A speed=14.7x    frame=29873 fps=353 q=-0.0 size=N/A time=00:20:45.95 bitrate=N/A speed=14.7x    frame=30026 fps=352 q=-0.0 size=N/A time=00:20:52.33 bitrate=N/A speed=14.7x    frame=30213 fps=352 q=-0.0 size=N/A time=00:21:00.13 bitrate=N/A speed=14.7x    frame=30390 fps=352 q=-0.0 size=N/A time=00:21:07.51 bitrate=N/A speed=14.7x    frame=30581 fps=353 q=-0.0 size=N/A time=00:21:15.48 bitrate=N/A speed=14.7x    frame=30768 fps=353 q=-0.0 size=N/A time=00:21:23.28 bitrate=N/A speed=14.7x    frame=30957 fps=353 q=-0.0 size=N/A time=00:21:31.16 bitrate=N/A speed=14.7x    frame=31139 fps=353 q=-0.0 size=N/A time=00:21:38.75 bitrate=N/A speed=14.7x    frame=31331 fps=353 q=-0.0 size=N/A time=00:21:46.76 bitrate=N/A speed=14.7x    frame=31510 fps=353 q=-0.0 size=N/A time=00:21:54.22 bitrate=N/A speed=14.7x    frame=31688 fps=353 q=-0.0 size=N/A time=00:22:01.65 bitrate=N/A speed=14.7x    frame=31859 fps=353 q=-0.0 size=N/A time=00:22:08.78 bitrate=N/A speed=14.7x    frame=32011 fps=352 q=-0.0 size=N/A time=00:22:15.12 bitrate=N/A speed=14.7x    frame=32193 fps=352 q=-0.0 size=N/A time=00:22:22.71 bitrate=N/A speed=14.7x    frame=32379 fps=352 q=-0.0 size=N/A time=00:22:30.47 bitrate=N/A speed=14.7x    frame=32565 fps=352 q=-0.0 size=N/A time=00:22:38.23 bitrate=N/A speed=14.7x    frame=32709 fps=352 q=-0.0 size=N/A time=00:22:44.23 bitrate=N/A speed=14.7x    frame=32867 fps=352 q=-0.0 size=N/A time=00:22:50.82 bitrate=N/A speed=14.7x    frame=33052 fps=352 q=-0.0 size=N/A time=00:22:58.54 bitrate=N/A speed=14.7x    frame=33231 fps=352 q=-0.0 size=N/A time=00:23:06.00 bitrate=N/A speed=14.7x    frame=33399 fps=352 q=-0.0 size=N/A time=00:23:13.01 bitrate=N/A speed=14.7x    frame=33554 fps=351 q=-0.0 size=N/A time=00:23:19.48 bitrate=N/A speed=14.6x    frame=33701 fps=351 q=-0.0 size=N/A time=00:23:25.61 bitrate=N/A speed=14.6x    frame=33822 fps=350 q=-0.0 size=N/A time=00:23:30.65 bitrate=N/A speed=14.6x    frame=33948 fps=350 q=-0.0 size=N/A time=00:23:35.91 bitrate=N/A speed=14.6x    frame=34113 fps=350 q=-0.0 size=N/A time=00:23:42.79 bitrate=N/A speed=14.6x    frame=34261 fps=349 q=-0.0 size=N/A time=00:23:48.96 bitrate=N/A speed=14.6x    frame=34385 fps=349 q=-0.0 size=N/A time=00:23:54.14 bitrate=N/A speed=14.5x    frame=34537 fps=348 q=-0.0 size=N/A time=00:24:00.48 bitrate=N/A speed=14.5x    [Parsed_psnr_16 @ 0000024e1e38f540] PSNR y:49.081483 u:50.356197 v:50.404716 average:49.472818 min:38.049317 max:inf
[out#0/null @ 0000024e1166dec0] video:14903KiB audio:271276KiB subtitle:0KiB other streams:0KiB global headers:0KiB muxing overhead: unknown
frame=34683 fps=348 q=-0.0 Lsize=N/A time=00:24:06.57 bitrate=N/A speed=14.5x    
